# xmcd
#
# Track frame offsets: 
#        150
#        16229
#        29872
#        46820
#        75980
#        92632
#        113981
#        145012
#        161917
#        183578
#        204748
#        224367
#        242840
#        274597
#        312165
#
# Disc length: 4385 seconds
#
# Revision: 0
# Processed by: cddbd v1.5.2PL0 Copyright (c) Steve Scherf et al.
# Submitted via: ExactAudioCopyFreeDBPlugin 1.0
#
DISCID=d1111f0f
DTITLE=Alexis Korner and Peter Thorup - Accidentally Born In New Orleans
DYEAR=1972
DGENRE=Blues
TTITLE0=Gospel Ship
TTITLE1=One Scotch, One Bourbon, One Beer
TTITLE2=Sweet Sympathy
TTITLE3=Rock Me
TTITLE4=Don't Change On Me
TTITLE5=You Got The Power (To Turn Me On)
TTITLE6=Lo And Behold
TTITLE7=Country Shoes
TTITLE8=I Don´t Know
TTITLE9=You Got The Power (To Turn Me On) - BBC Session
TTITLE10=Honey Don´t You Change On Me - BBC Session
TTITLE11=Looking For Fun - BBC Session
TTITLE12=Rock Me - BBC Session
TTITLE13=Lo And Behold  - BBC Session
TTITLE14=Gospel Ship - BBC Session
EXTD=
EXTT0=
EXTT1=
EXTT2=
EXTT3=
EXTT4=
EXTT5=
EXTT6=
EXTT7=
EXTT8=
EXTT9=
EXTT10=
EXTT11=
EXTT12=
EXTT13=
EXTT14=
PLAYORDER=
